<mxfile host="app.diagrams.net" agent="Mozilla/5.0 (Windows NT 10.0; Win64; x64) AppleWebKit/537.36 (KHTML, like Gecko) Chrome/136.0.0.0 Safari/537.36" version="27.0.3">
  <diagram name="Page-1" id="TXCzfEorVoo9AF132aRA">
    <mxGraphModel dx="983" dy="522" grid="1" gridSize="10" guides="1" tooltips="1" connect="1" arrows="1" fold="1" page="1" pageScale="1" pageWidth="827" pageHeight="1169" math="0" shadow="0">
      <root>
        <mxCell id="0" />
        <mxCell id="1" parent="0" />
        <mxCell id="aPpOfy9025zDFCyzrZ-R-11" style="edgeStyle=orthogonalEdgeStyle;rounded=0;orthogonalLoop=1;jettySize=auto;html=1;exitX=0.5;exitY=1;exitDx=0;exitDy=0;endArrow=none;startFill=0;" edge="1" parent="1" source="aPpOfy9025zDFCyzrZ-R-1">
          <mxGeometry relative="1" as="geometry">
            <mxPoint x="460.04761904761904" y="140" as="targetPoint" />
          </mxGeometry>
        </mxCell>
        <mxCell id="aPpOfy9025zDFCyzrZ-R-1" value="Root" style="rounded=1;whiteSpace=wrap;html=1;" vertex="1" parent="1">
          <mxGeometry x="415" y="80" width="90" height="40" as="geometry" />
        </mxCell>
        <mxCell id="aPpOfy9025zDFCyzrZ-R-8" style="edgeStyle=orthogonalEdgeStyle;rounded=0;orthogonalLoop=1;jettySize=auto;html=1;exitX=0.5;exitY=0;exitDx=0;exitDy=0;endArrow=none;startFill=0;" edge="1" parent="1" source="aPpOfy9025zDFCyzrZ-R-3">
          <mxGeometry relative="1" as="geometry">
            <mxPoint x="380.04761904761904" y="140" as="targetPoint" />
          </mxGeometry>
        </mxCell>
        <mxCell id="aPpOfy9025zDFCyzrZ-R-3" value="e" style="rounded=0;whiteSpace=wrap;html=1;" vertex="1" parent="1">
          <mxGeometry x="360" y="160" width="40" height="40" as="geometry" />
        </mxCell>
        <mxCell id="aPpOfy9025zDFCyzrZ-R-12" style="edgeStyle=orthogonalEdgeStyle;rounded=0;orthogonalLoop=1;jettySize=auto;html=1;exitX=0.5;exitY=0;exitDx=0;exitDy=0;endArrow=none;startFill=0;" edge="1" parent="1" source="aPpOfy9025zDFCyzrZ-R-4">
          <mxGeometry relative="1" as="geometry">
            <mxPoint x="460.04761904761904" y="140" as="targetPoint" />
          </mxGeometry>
        </mxCell>
        <mxCell id="aPpOfy9025zDFCyzrZ-R-27" style="edgeStyle=orthogonalEdgeStyle;rounded=0;orthogonalLoop=1;jettySize=auto;html=1;exitX=0.5;exitY=1;exitDx=0;exitDy=0;entryX=0.5;entryY=0;entryDx=0;entryDy=0;endArrow=none;startFill=0;" edge="1" parent="1" source="aPpOfy9025zDFCyzrZ-R-4" target="aPpOfy9025zDFCyzrZ-R-25">
          <mxGeometry relative="1" as="geometry" />
        </mxCell>
        <mxCell id="aPpOfy9025zDFCyzrZ-R-4" value="i" style="rounded=0;whiteSpace=wrap;html=1;" vertex="1" parent="1">
          <mxGeometry x="440" y="160" width="40" height="40" as="geometry" />
        </mxCell>
        <mxCell id="aPpOfy9025zDFCyzrZ-R-9" style="edgeStyle=orthogonalEdgeStyle;rounded=0;orthogonalLoop=1;jettySize=auto;html=1;exitX=0.5;exitY=0;exitDx=0;exitDy=0;endArrow=none;startFill=0;" edge="1" parent="1" source="aPpOfy9025zDFCyzrZ-R-5">
          <mxGeometry relative="1" as="geometry">
            <mxPoint x="540.047619047619" y="140" as="targetPoint" />
          </mxGeometry>
        </mxCell>
        <mxCell id="aPpOfy9025zDFCyzrZ-R-30" style="edgeStyle=orthogonalEdgeStyle;rounded=0;orthogonalLoop=1;jettySize=auto;html=1;exitX=0.5;exitY=1;exitDx=0;exitDy=0;entryX=0.5;entryY=0;entryDx=0;entryDy=0;endArrow=none;startFill=0;" edge="1" parent="1" source="aPpOfy9025zDFCyzrZ-R-5" target="aPpOfy9025zDFCyzrZ-R-28">
          <mxGeometry relative="1" as="geometry" />
        </mxCell>
        <mxCell id="aPpOfy9025zDFCyzrZ-R-5" value="s" style="rounded=0;whiteSpace=wrap;html=1;" vertex="1" parent="1">
          <mxGeometry x="520" y="160" width="40" height="40" as="geometry" />
        </mxCell>
        <mxCell id="aPpOfy9025zDFCyzrZ-R-6" value="" style="endArrow=none;html=1;rounded=0;" edge="1" parent="1">
          <mxGeometry width="50" height="50" relative="1" as="geometry">
            <mxPoint x="380" y="140" as="sourcePoint" />
            <mxPoint x="540" y="140" as="targetPoint" />
          </mxGeometry>
        </mxCell>
        <mxCell id="aPpOfy9025zDFCyzrZ-R-14" style="edgeStyle=orthogonalEdgeStyle;rounded=0;orthogonalLoop=1;jettySize=auto;html=1;exitX=0.5;exitY=0;exitDx=0;exitDy=0;entryX=0.5;entryY=1;entryDx=0;entryDy=0;endArrow=none;startFill=0;" edge="1" parent="1" source="aPpOfy9025zDFCyzrZ-R-13" target="aPpOfy9025zDFCyzrZ-R-3">
          <mxGeometry relative="1" as="geometry" />
        </mxCell>
        <mxCell id="aPpOfy9025zDFCyzrZ-R-19" style="edgeStyle=orthogonalEdgeStyle;rounded=0;orthogonalLoop=1;jettySize=auto;html=1;exitX=0.5;exitY=1;exitDx=0;exitDy=0;endArrow=none;startFill=0;" edge="1" parent="1" source="aPpOfy9025zDFCyzrZ-R-13">
          <mxGeometry relative="1" as="geometry">
            <mxPoint x="380.04761904761904" y="270" as="targetPoint" />
          </mxGeometry>
        </mxCell>
        <mxCell id="aPpOfy9025zDFCyzrZ-R-13" value="l" style="rounded=0;whiteSpace=wrap;html=1;" vertex="1" parent="1">
          <mxGeometry x="360" y="220" width="40" height="40" as="geometry" />
        </mxCell>
        <mxCell id="aPpOfy9025zDFCyzrZ-R-22" style="edgeStyle=orthogonalEdgeStyle;rounded=0;orthogonalLoop=1;jettySize=auto;html=1;exitX=0.5;exitY=0;exitDx=0;exitDy=0;endArrow=none;startFill=0;" edge="1" parent="1" source="aPpOfy9025zDFCyzrZ-R-15">
          <mxGeometry relative="1" as="geometry">
            <mxPoint x="340.04761904761904" y="270" as="targetPoint" />
          </mxGeometry>
        </mxCell>
        <mxCell id="aPpOfy9025zDFCyzrZ-R-23" style="edgeStyle=orthogonalEdgeStyle;rounded=0;orthogonalLoop=1;jettySize=auto;html=1;exitX=0.5;exitY=1;exitDx=0;exitDy=0;entryX=0.5;entryY=0;entryDx=0;entryDy=0;endArrow=none;startFill=0;" edge="1" parent="1" source="aPpOfy9025zDFCyzrZ-R-15" target="aPpOfy9025zDFCyzrZ-R-18">
          <mxGeometry relative="1" as="geometry" />
        </mxCell>
        <mxCell id="aPpOfy9025zDFCyzrZ-R-15" value="i" style="rounded=0;whiteSpace=wrap;html=1;" vertex="1" parent="1">
          <mxGeometry x="320" y="280" width="40" height="40" as="geometry" />
        </mxCell>
        <mxCell id="aPpOfy9025zDFCyzrZ-R-21" style="edgeStyle=orthogonalEdgeStyle;rounded=0;orthogonalLoop=1;jettySize=auto;html=1;exitX=0.5;exitY=0;exitDx=0;exitDy=0;endArrow=none;startFill=0;" edge="1" parent="1" source="aPpOfy9025zDFCyzrZ-R-16">
          <mxGeometry relative="1" as="geometry">
            <mxPoint x="420.04761904761904" y="270" as="targetPoint" />
          </mxGeometry>
        </mxCell>
        <mxCell id="aPpOfy9025zDFCyzrZ-R-24" style="edgeStyle=orthogonalEdgeStyle;rounded=0;orthogonalLoop=1;jettySize=auto;html=1;exitX=0.5;exitY=1;exitDx=0;exitDy=0;entryX=0.5;entryY=0;entryDx=0;entryDy=0;endArrow=none;startFill=0;" edge="1" parent="1" source="aPpOfy9025zDFCyzrZ-R-16" target="aPpOfy9025zDFCyzrZ-R-17">
          <mxGeometry relative="1" as="geometry" />
        </mxCell>
        <mxCell id="aPpOfy9025zDFCyzrZ-R-16" value="s" style="rounded=0;whiteSpace=wrap;html=1;" vertex="1" parent="1">
          <mxGeometry x="400" y="280" width="40" height="40" as="geometry" />
        </mxCell>
        <mxCell id="aPpOfy9025zDFCyzrZ-R-17" value="e&lt;div&gt;ELSE&lt;/div&gt;" style="rounded=0;whiteSpace=wrap;html=1;" vertex="1" parent="1">
          <mxGeometry x="400" y="340" width="40" height="40" as="geometry" />
        </mxCell>
        <mxCell id="aPpOfy9025zDFCyzrZ-R-18" value="f&lt;div&gt;ELIF&lt;/div&gt;" style="rounded=0;whiteSpace=wrap;html=1;" vertex="1" parent="1">
          <mxGeometry x="320" y="340" width="40" height="40" as="geometry" />
        </mxCell>
        <mxCell id="aPpOfy9025zDFCyzrZ-R-20" value="" style="endArrow=none;html=1;rounded=0;" edge="1" parent="1">
          <mxGeometry width="50" height="50" relative="1" as="geometry">
            <mxPoint x="340" y="270" as="sourcePoint" />
            <mxPoint x="420" y="270" as="targetPoint" />
          </mxGeometry>
        </mxCell>
        <mxCell id="aPpOfy9025zDFCyzrZ-R-25" value="f&lt;div&gt;IF&lt;/div&gt;" style="rounded=0;whiteSpace=wrap;html=1;" vertex="1" parent="1">
          <mxGeometry x="440" y="220" width="40" height="40" as="geometry" />
        </mxCell>
        <mxCell id="aPpOfy9025zDFCyzrZ-R-31" style="edgeStyle=orthogonalEdgeStyle;rounded=0;orthogonalLoop=1;jettySize=auto;html=1;exitX=0.5;exitY=1;exitDx=0;exitDy=0;entryX=0.5;entryY=0;entryDx=0;entryDy=0;endArrow=none;startFill=0;" edge="1" parent="1" source="aPpOfy9025zDFCyzrZ-R-28" target="aPpOfy9025zDFCyzrZ-R-29">
          <mxGeometry relative="1" as="geometry" />
        </mxCell>
        <mxCell id="aPpOfy9025zDFCyzrZ-R-28" value="t" style="rounded=0;whiteSpace=wrap;html=1;" vertex="1" parent="1">
          <mxGeometry x="520" y="220" width="40" height="40" as="geometry" />
        </mxCell>
        <mxCell id="aPpOfy9025zDFCyzrZ-R-32" style="edgeStyle=orthogonalEdgeStyle;rounded=0;orthogonalLoop=1;jettySize=auto;html=1;exitX=0.5;exitY=1;exitDx=0;exitDy=0;endArrow=none;startFill=0;" edge="1" parent="1" source="aPpOfy9025zDFCyzrZ-R-29">
          <mxGeometry relative="1" as="geometry">
            <mxPoint x="540.047619047619" y="330" as="targetPoint" />
          </mxGeometry>
        </mxCell>
        <mxCell id="aPpOfy9025zDFCyzrZ-R-29" value="r" style="rounded=0;whiteSpace=wrap;html=1;" vertex="1" parent="1">
          <mxGeometry x="520" y="280" width="40" height="40" as="geometry" />
        </mxCell>
        <mxCell id="aPpOfy9025zDFCyzrZ-R-33" value="" style="endArrow=none;html=1;rounded=0;" edge="1" parent="1">
          <mxGeometry width="50" height="50" relative="1" as="geometry">
            <mxPoint x="500" y="330" as="sourcePoint" />
            <mxPoint x="580" y="330" as="targetPoint" />
          </mxGeometry>
        </mxCell>
        <mxCell id="aPpOfy9025zDFCyzrZ-R-37" style="edgeStyle=orthogonalEdgeStyle;rounded=0;orthogonalLoop=1;jettySize=auto;html=1;exitX=0.5;exitY=0;exitDx=0;exitDy=0;endArrow=none;startFill=0;" edge="1" parent="1" source="aPpOfy9025zDFCyzrZ-R-34">
          <mxGeometry relative="1" as="geometry">
            <mxPoint x="500.04761904761904" y="330" as="targetPoint" />
          </mxGeometry>
        </mxCell>
        <mxCell id="aPpOfy9025zDFCyzrZ-R-34" value="i" style="rounded=0;whiteSpace=wrap;html=1;" vertex="1" parent="1">
          <mxGeometry x="480" y="340" width="40" height="40" as="geometry" />
        </mxCell>
        <mxCell id="aPpOfy9025zDFCyzrZ-R-36" style="edgeStyle=orthogonalEdgeStyle;rounded=0;orthogonalLoop=1;jettySize=auto;html=1;exitX=0.5;exitY=0;exitDx=0;exitDy=0;endArrow=none;startFill=0;" edge="1" parent="1" source="aPpOfy9025zDFCyzrZ-R-35">
          <mxGeometry relative="1" as="geometry">
            <mxPoint x="580.047619047619" y="330" as="targetPoint" />
          </mxGeometry>
        </mxCell>
        <mxCell id="aPpOfy9025zDFCyzrZ-R-35" value="u" style="rounded=0;whiteSpace=wrap;html=1;" vertex="1" parent="1">
          <mxGeometry x="560" y="340" width="40" height="40" as="geometry" />
        </mxCell>
        <mxCell id="aPpOfy9025zDFCyzrZ-R-43" style="edgeStyle=orthogonalEdgeStyle;rounded=0;orthogonalLoop=1;jettySize=auto;html=1;exitX=0.5;exitY=0;exitDx=0;exitDy=0;entryX=0.5;entryY=1;entryDx=0;entryDy=0;endArrow=none;startFill=0;" edge="1" parent="1" source="aPpOfy9025zDFCyzrZ-R-38" target="aPpOfy9025zDFCyzrZ-R-34">
          <mxGeometry relative="1" as="geometry" />
        </mxCell>
        <mxCell id="aPpOfy9025zDFCyzrZ-R-38" value="n" style="rounded=0;whiteSpace=wrap;html=1;" vertex="1" parent="1">
          <mxGeometry x="480" y="400" width="40" height="40" as="geometry" />
        </mxCell>
        <mxCell id="aPpOfy9025zDFCyzrZ-R-42" style="edgeStyle=orthogonalEdgeStyle;rounded=0;orthogonalLoop=1;jettySize=auto;html=1;exitX=0.5;exitY=0;exitDx=0;exitDy=0;entryX=0.5;entryY=1;entryDx=0;entryDy=0;endArrow=none;startFill=0;" edge="1" parent="1" source="aPpOfy9025zDFCyzrZ-R-39" target="aPpOfy9025zDFCyzrZ-R-38">
          <mxGeometry relative="1" as="geometry" />
        </mxCell>
        <mxCell id="aPpOfy9025zDFCyzrZ-R-39" value="g&lt;div&gt;&lt;font style=&quot;font-size: 9px;&quot;&gt;STRING&lt;/font&gt;&lt;/div&gt;" style="rounded=0;whiteSpace=wrap;html=1;" vertex="1" parent="1">
          <mxGeometry x="480" y="460" width="40" height="40" as="geometry" />
        </mxCell>
        <mxCell id="aPpOfy9025zDFCyzrZ-R-44" style="edgeStyle=orthogonalEdgeStyle;rounded=0;orthogonalLoop=1;jettySize=auto;html=1;exitX=0.5;exitY=0;exitDx=0;exitDy=0;entryX=0.5;entryY=1;entryDx=0;entryDy=0;endArrow=none;startFill=0;" edge="1" parent="1" source="aPpOfy9025zDFCyzrZ-R-40" target="aPpOfy9025zDFCyzrZ-R-35">
          <mxGeometry relative="1" as="geometry" />
        </mxCell>
        <mxCell id="aPpOfy9025zDFCyzrZ-R-40" value="c" style="rounded=0;whiteSpace=wrap;html=1;" vertex="1" parent="1">
          <mxGeometry x="560" y="400" width="40" height="40" as="geometry" />
        </mxCell>
        <mxCell id="aPpOfy9025zDFCyzrZ-R-45" style="edgeStyle=orthogonalEdgeStyle;rounded=0;orthogonalLoop=1;jettySize=auto;html=1;exitX=0.5;exitY=0;exitDx=0;exitDy=0;entryX=0.5;entryY=1;entryDx=0;entryDy=0;endArrow=none;startFill=0;" edge="1" parent="1" source="aPpOfy9025zDFCyzrZ-R-41" target="aPpOfy9025zDFCyzrZ-R-40">
          <mxGeometry relative="1" as="geometry" />
        </mxCell>
        <mxCell id="aPpOfy9025zDFCyzrZ-R-41" value="t&lt;div&gt;&lt;font style=&quot;font-size: 9px;&quot;&gt;STRUCT&lt;/font&gt;&lt;/div&gt;" style="rounded=0;whiteSpace=wrap;html=1;" vertex="1" parent="1">
          <mxGeometry x="560" y="460" width="40" height="40" as="geometry" />
        </mxCell>
        <mxCell id="aPpOfy9025zDFCyzrZ-R-46" value="Trie Datastructure" style="text;html=1;align=center;verticalAlign=middle;whiteSpace=wrap;rounded=0;fontSize=16;" vertex="1" parent="1">
          <mxGeometry x="340" y="20" width="240" height="40" as="geometry" />
        </mxCell>
      </root>
    </mxGraphModel>
  </diagram>
</mxfile>
